<svg xmlns="http://www.w3.org/2000/svg" viewBox="0 0 964 146" width="964" height="146">
	<style>
		tspan { white-space:pre }
	</style>
	<path id="Redirecting..." fill="#ffffff" d="M52.58 62.73Q57.34 64.34 61.81 69.62Q66.35 74.89 70.89 84.12L85.9 114L70.01 114L56.02 85.95Q50.6 74.96 45.47 71.37Q40.42 67.78 31.63 67.78L15.52 67.78L15.52 114L0.72 114L0.72 4.65L34.12 4.65Q52.87 4.65 62.1 12.49Q71.33 20.32 71.33 36.14Q71.33 46.47 66.49 53.28Q61.73 60.09 52.58 62.73ZM34.12 16.81L15.52 16.81L15.52 55.63L34.12 55.63Q44.81 55.63 50.23 50.72Q55.73 45.74 55.73 36.14Q55.73 26.55 50.23 21.71Q44.81 16.81 34.12 16.81ZM167.79 69.62L167.79 76.21L105.82 76.21Q106.7 90.12 114.17 97.45Q121.72 104.7 135.12 104.7Q142.88 104.7 150.14 102.79Q157.46 100.89 164.64 97.08L164.64 109.83Q157.39 112.9 149.77 114.51Q142.15 116.12 134.32 116.12Q114.69 116.12 103.19 104.7Q91.76 93.27 91.76 73.79Q91.76 53.65 102.6 41.86Q113.51 29.99 131.97 29.99Q148.52 29.99 158.12 40.68Q167.79 51.3 167.79 69.62ZM106.26 65.73L154.31 65.66Q154.16 54.6 148.08 48.01Q142.08 41.42 132.12 41.42Q120.84 41.42 114.03 47.79Q107.29 54.16 106.26 65.73ZM243.89 44.42L243.89 0.04L257.36 0.04L257.36 114L243.89 114L243.89 101.7Q239.64 109.02 233.12 112.61Q226.67 116.12 217.59 116.12Q202.72 116.12 193.35 104.26Q184.05 92.39 184.05 73.06Q184.05 53.72 193.35 41.86Q202.72 29.99 217.59 29.99Q226.67 29.99 233.12 33.58Q239.64 37.1 243.89 44.42ZM197.96 73.06Q197.96 87.93 204.04 96.42Q210.19 104.84 220.89 104.84Q231.58 104.84 237.73 96.42Q243.89 87.93 243.89 73.06Q243.89 58.19 237.73 49.77Q231.58 41.27 220.89 41.27Q210.19 41.27 204.04 49.77Q197.96 58.19 197.96 73.06ZM285.12 114L285.12 31.97L298.6 31.97L298.6 114L285.12 114ZM285.12 17.1L285.12 0.04L298.6 0.04L298.6 17.1L285.12 17.1ZM374.26 30.72L374.33 44.57Q372.06 43.25 369.35 42.66Q366.71 42 363.49 42Q352.06 42 345.91 49.47Q339.83 56.87 339.83 70.79L339.83 114L326.28 114L326.28 31.97L339.83 31.97L339.83 44.71Q344.08 37.24 350.89 33.65Q357.7 29.99 367.45 29.99Q368.84 29.99 370.52 30.21Q372.21 30.36 374.26 30.72ZM455.34 69.62L455.34 76.21L393.37 76.21Q394.25 90.12 401.72 97.45Q409.27 104.7 422.67 104.7Q430.43 104.7 437.68 102.79Q445.01 100.89 452.19 97.08L452.19 109.83Q444.94 112.9 437.32 114.51Q429.7 116.12 421.86 116.12Q402.24 116.12 390.74 104.7Q379.31 93.27 379.31 73.79Q379.31 53.65 390.15 41.86Q401.06 29.99 419.52 29.99Q436.07 29.99 445.67 40.68Q455.34 51.3 455.34 69.62ZM393.81 65.73L441.86 65.66Q441.71 54.6 435.63 48.01Q429.63 41.42 419.67 41.42Q408.39 41.42 401.58 47.79Q394.84 54.16 393.81 65.73ZM536.49 35.12L536.49 47.72Q530.78 44.57 524.99 43.03Q519.28 41.42 513.42 41.42Q500.31 41.42 493.06 49.77Q485.8 58.04 485.8 73.06Q485.8 88.07 493.06 96.42Q500.31 104.7 513.42 104.7Q519.28 104.7 524.99 103.16Q530.78 101.55 536.49 98.4L536.49 110.85Q530.85 113.49 524.77 114.81Q518.76 116.12 511.95 116.12Q493.42 116.12 482.51 104.48Q471.6 92.83 471.6 73.06Q471.6 52.99 482.58 41.49Q493.64 29.99 512.83 29.99Q519.06 29.99 524.99 31.31Q530.92 32.55 536.49 35.12ZM559.71 8.68L573.26 8.68L573.26 31.97L601.01 31.97L601.01 42.44L573.26 42.44L573.26 86.97Q573.26 97.01 575.97 99.86Q578.75 102.72 587.17 102.72L601.01 102.72L601.01 114L587.17 114Q571.57 114 565.64 108.21Q559.71 102.35 559.71 86.97L559.71 42.44L549.82 42.44L549.82 31.97L559.71 31.97L559.71 8.68ZM618.74 114L618.74 31.97L632.22 31.97L632.22 114L618.74 114ZM618.74 17.1L618.74 0.04L632.22 0.04L632.22 17.1L618.74 17.1ZM728.6 64.49L728.6 114L715.13 114L715.13 64.93Q715.13 53.28 710.58 47.5Q706.04 41.71 696.96 41.71Q686.05 41.71 679.75 48.67Q673.45 55.63 673.45 67.64L673.45 114L659.9 114L659.9 31.97L673.45 31.97L673.45 44.71Q678.29 37.32 684.8 33.65Q691.4 29.99 699.96 29.99Q714.1 29.99 721.35 38.78Q728.6 47.5 728.6 64.49ZM809.46 72.03Q809.46 57.38 803.38 49.33Q797.38 41.27 786.46 41.27Q775.62 41.27 769.54 49.33Q763.54 57.38 763.54 72.03Q763.54 86.61 769.54 94.66Q775.62 102.72 786.46 102.72Q797.38 102.72 803.38 94.66Q809.46 86.61 809.46 72.03ZM822.94 31.97L822.94 103.82Q822.94 124.77 813.64 135.02Q804.33 145.2 785.15 145.2Q778.04 145.2 771.74 144.18Q765.44 143.08 759.51 140.88L759.51 127.77Q765.44 130.99 771.23 132.53Q777.02 134.07 783.02 134.07Q796.28 134.07 802.87 127.18Q809.46 120.23 809.46 106.24L809.46 99.57Q805.29 106.82 798.77 110.41Q792.25 114 783.17 114Q768.08 114 758.85 102.5Q749.62 91 749.62 72.03Q749.62 52.99 758.85 41.49Q768.08 29.99 783.17 29.99Q792.25 29.99 798.77 33.58Q805.29 37.17 809.46 44.42L809.46 31.97L822.94 31.97ZM852.6 114L852.6 95.4L868.06 95.4L868.06 114L852.6 114ZM900.28 114L900.28 95.4L915.74 95.4L915.74 114L900.28 114ZM947.96 114L947.96 95.4L963.42 95.4L963.42 114L947.96 114Z" />
</svg>